# xmcd
#
# Track frame offsets: 
#        150
#        9450
#        19950
#        30900
#        39075
#        50475
#        60714
#        70914
#        86964
#        101739
#        113064
#        123789
#        138564
#        151314
#        161176
#
# Disc length: 2294 seconds
#
# Revision: 0
# Processed by: cddbd v1.5.2PL0 Copyright (c) Steve Scherf et al.
# Submitted via: ExactAudioCopyFreeDBPlugin 1.0
#
DISCID=c108f40f
DTITLE=Lignit - Dopis
DYEAR=2008
DGENRE=Country
TTITLE0=Pouta
TTITLE1=Linej
TTITLE2=Blues masinfiry
TTITLE3=Ne jenom ty
TTITLE4=Dopis
TTITLE5=Zvlastni sen
TTITLE6=Pulmesic
TTITLE7=Cerny blues
TTITLE8=Kdyz tanci
TTITLE9=Tak to je
TTITLE10=Georga
TTITLE11=Pribeh z udoli reky Tay
TTITLE12=Az opada listi z dubu
TTITLE13=Durman
TTITLE14=Mary Ann
EXTD=
EXTT0=
EXTT1=
EXTT2=
EXTT3=
EXTT4=
EXTT5=
EXTT6=
EXTT7=
EXTT8=
EXTT9=
EXTT10=
EXTT11=
EXTT12=
EXTT13=
EXTT14=
PLAYORDER=
